# xmcd CD database file
#
# Track frame offsets:
#	150
#	12904
#	26799
#	40605
#	54408
#	66346
#	81871
#	94397
#	108671
#	122556
#	135775
#	148847
#	161020
#	174674
#	186319
#	199310
#	214540
#	226552
#
# Disc length: 3182 seconds
#
# Revision: 0
# Processed by: cddbd v1.5.1PL0 Copyright (c) Steve Scherf et al.
# Submitted via: CDex 1.51
#
DISCID=f80c6c12
DTITLE=Sarah Vaughan - Vocal Jazz
DYEAR=1900
DGENRE=Jazz
TTITLE0=What a Diference a Day Makes
TTITLE1=Once in a while
TTITLE2=What more can A Woman do
TTITLE3=You Go to my Head
TTITLE4=My Kinda Love
TTITLE5=Lover Man
TTITLE6=You're not the kind
TTITLE7=Don't blame me
TTITLE8=I Can make you love me
TTITLE9=All Too Soon
TTITLE10=East of the Sun
TTITLE11=We're Through
TTITLE12=It might as well be spring
TTITLE13=I'm scared
TTITLE14=Body and soul
TTITLE15=Time and again
TTITLE16=Mean to me
TTITLE17=Singing Off
EXTD=
EXTT0=
EXTT1=
EXTT2=
EXTT3=
EXTT4=
EXTT5=
EXTT6=
EXTT7=
EXTT8=
EXTT9=
EXTT10=
EXTT11=
EXTT12=
EXTT13=
EXTT14=
EXTT15=
EXTT16=
EXTT17=
PLAYORDER=
